<?xml version="1.0" encoding="UTF-8"?><svg id="Layer_1" xmlns="http://www.w3.org/2000/svg" xmlns:xlink="http://www.w3.org/1999/xlink" viewBox="0 0 772 250"><defs><style>.cls-1,.cls-2{fill:none;}.cls-3{clip-path:url(#clippath);}.cls-4{fill:#f2cb51;}.cls-5,.cls-6{fill:#feefef;}.cls-7{fill:#ef4023;}.cls-6,.cls-2{stroke:#ef4023;}</style><clipPath id="clippath"><rect class="cls-1" width="772" height="250"/></clipPath></defs><rect class="cls-5" width="772" height="250"/><g class="cls-3"><g><path class="cls-7" d="M332.27,212.15s-37.4,8.42-43.91,13.1c-6.17,3.54-11.02,8.89-15.94,13.92-9.42,9.62-18.18,19.88-26.39,30.55-5.73,7.45-11.83,15.35-14.84,24.48-3.23,9.78-2.82,21.44,6.68,27.5,6.93,4.42,13.85,8.84,20.77,13.27,1.9,1.22,3.81,2.43,5.71,3.65,0,0,7.51,3.08,8.68-3.81,0,0,1-10.11,9.81-12.76,0,0,4.42-3.14-.96-6.94-6.87-3.64-22.32-8.89-15.57-19.4,5.64-8.78,13.48-17.67,17.7-21.67,0,0,8.45-9.06,8.56,1.7,0,0-3.12,43.46,4.83,65.94l70.05,7.15,46.95-28.72,.56-24.42s-13.5-10.33-18.05-43.94c0,0-.6-22.61-12.04-33.83-1.11-1.09-5.45-3.51-8.47-4.3-9.02-2.35-28.92-6.42-44.12-1.45Z"/><path class="cls-1" d="M322.09,220.35c1.31,4.72,5.5,11.81,18.82,12.33,0,0,17.37-.65,20.33-12.65-2.67-2.51-6.7-8.35-4.85-19.91l-9.55-12.49-17.59-3.46-6.64,2.69s5.33,20.63-.52,33.5Z"/><g><rect class="cls-2" x="131.23" y="123.35" width="71.55" height="71.55" rx="9.51" ry="9.51" transform="translate(6.37 324.68) rotate(-89.48)"/><circle class="cls-2" cx="150.73" cy="150.03" r="6.46"/><path id="Path_3878" class="cls-2" d="M144.95,175.28l.05-5.99,8.56-8.41c.63-.59,1.62-.57,2.21,.06,.02,.02,.03,.03,.04,.05,1.27,1.13,6.57,6.69,6.57,6.69l16.48-16.26c.46-.59,1.31-.71,1.9-.25,.1,.08,.19,.17,.26,.27,1.23,1.23,10.53,10.72,10.53,10.72l-.12,13.59-46.49-.48Z"/></g><g><path class="cls-2" d="M37.84,19.64l47.06,.44c4.7,.04,8.48,4,8.44,8.84l-.43,48.41c-.04,4.84-3.89,8.72-8.59,8.68l-47.06-.44c-4.7-.04-8.48-4-8.44-8.84l.43-48.41c.04-4.84,3.89-8.72,8.59-8.68Z"/><ellipse class="cls-2" cx="46.5" cy="44.44" rx="5.79" ry="5.96"/><path id="Path_3878-2" class="cls-2" d="M41.33,67.71l.05-5.52,7.67-7.75c.56-.55,1.45-.52,1.98,.05,.01,.01,.03,.03,.04,.04,1.14,1.04,5.89,6.17,5.89,6.17l14.76-14.99c.41-.55,1.17-.65,1.7-.23,.09,.07,.17,.15,.24,.25,1.1,1.13,9.43,9.88,9.43,9.88l-.11,12.52-41.64-.44Z"/></g><g><rect class="cls-6" x="408.8" y="21.31" width="54.65" height="54.65" rx="7.81" ry="7.81" transform="translate(20.49 189.42) rotate(-25.08)"/><circle class="cls-2" cx="421.9" cy="47.74" r="4.91"/><path id="Path_3878-3" class="cls-2" d="M426.25,67.07l-1.94-4.15,3.13-8.63c.24-.62,.93-.93,1.54-.69,.02,0,.03,.01,.05,.02,1.25,.36,6.75,2.45,6.75,2.45l5.99-16.66c.12-.56,.68-.92,1.24-.8,.09,.02,.18,.05,.26,.1,1.26,.45,10.8,3.92,10.8,3.92l4.41,9.42-32.23,15.03Z"/></g><path class="cls-4" d="M405.41,103.39c.55,1.35,.22,4.28,.28,5.33,.2,3.58,.76,7.15,.64,10.74-.25,7.68-3.97,15.28-5.44,22.8-.72,3.7-9.57-3.08-10.7-6.76-1.13-3.67-2.93-7.81,2.4-10.95,1.84-1.86,8.28-4.48,8.48-7.13,.1-1.34-2.96-12.07,4.03-14.53,.13,.12,.23,.29,.31,.49Z"/><path class="cls-7" d="M368.52,211.9s30.59,11.05,35.23-8.66c2.64-11.21-14.96-33.05-15.35-45.66-1.35-20.37,20.7-21.52,28.13-1.84,7.43,19.69,16.06,34.14,16.16,61.28,.03,8.68-7.42,15.27-13.24,20.72-6.06,5.68-12.62,11.51-15.56,19.51-2.68,7.29-2.88,14.54-.15,21.91,4.34,11.72-31.89-28.61-31.89-28.61l-3.33-38.65Z"/><g><path class="cls-7" d="M676.23,209.39c-2.04-4.28-4.1-8.41-6.18-12.37-13.38-25.5-27.52-43.78-41.31-45.45-4.13-.5-25.9-1.5-35.13-.15-9.27,1.35-18.46,3.21-27.51,5.65-4.23,1.14-8.92,3.46-13.24,3.88-4.41,.43-9.32-1.24-13.65-1.91-10.76-1.65-18-6.98-23.21-16.71-6.73-12.57-11.66-26.08-17.37-39.11-1.59-3.62-3.32-7.8-5.62-11.24-3.83-5.73-8.91-6.35-17.82-1.94-5.59,2.76-6.65,5.76-5.94,11.42,.3,2.37,.85,4.67,1.4,6.62,7.97,28.35,20.9,65.05,64.61,101.81,0,0,3.13,2.69,4.09,10.42-.35,10.02-2.69,19.98-6.87,29.1-2.43,5.32-4.51,21.61,3.93,22.27h58.21c1.38,8.11,8.43,14.3,16.93,14.3,.67,0,27.43-1.25,32.52-1.46,22.71-.98,41.03-12.99,45.25-33.56,2.57-12.53-8.07-30.98-13.1-41.54Zm-33.54,44.23c-1.66,.39-4.55,.47-8.04,.42,1.38-13.83,1.65-29.02,2.24-34.86,.38-3.83,6-5.32,7.72-1.87l9.76,19.58c7.46,12.5-3.03,16.44-11.68,16.73Z"/><path class="cls-1" d="M565.59,132.73s13.6,9.5,9.93,27.99c0,0,23.85,19.15,38.17-5.21,0,0-11.76-10.17-2.46-31.74l5.74-12.6-39.67,4.68-11.7,16.87Z"/><path class="cls-4" d="M601.66,127.86l-3.7,6.19c-4.24,6.8-14.93,7.96-14.93,7.96-3.44,1.13-18.53,.77-18.53,.77-6.77-.09-7.79-4.95-7.79-4.95-7.66-35.26,13.7-63.66,13.7-63.66,0,0,35.66-15.45,43.09,18.9,0,0-4.47,25.08-11.85,34.8Z"/><path class="cls-7" d="M561.46,83.85c5.65-12.3,22.06-17.67,34.6-16.25,17.26,1.96,31.07,13.59,36.66,28.87,.86,2.36,1.04,3.31,1.39,5.47,3.04,18.57-19.55,32.47-25.35,35.71-.75,.42-1.7,.17-2.12-.57,0-.01-.01-.02-.02-.03-2.3-3.19-5.01-6.48-4.45-10.79,.14-1.1,.35-1.89,1.26-2.53,2.47-1.76,3.89-4.98,2.89-8.58-.51-1.85-1.81-3.43-3.51-4.33-1.9-1-3.85-1.19-5.59-.78s-3.51-.22-4.52-1.66c-2.34-3.34-2.37-8.99-2.14-12.3,.14-2.06-.61-4.11-2.12-5.52-6.31-5.92-15.88-4.22-20.34-2.97l-1.08,.36c-.89,.34-1.84,.7-2.76,1.13-1.87,.87-3.94-.73-3.55-2.75h0c.16-.84,.39-1.68,.75-2.46Z"/><path class="cls-4" d="M466.23,54.05c0,.19,.01,.38,.02,.57,.09,4.82-6.52,12.44-2.78,16.49,4.83,5.24,7.32,12.91,7.24,20.09-.03,2.5-1.14,7.42,.39,9.64,.7,2.59,9.81,2.56,14.79-.88s6.69-6.62,3.24-11.6c-2.15-3.1-3.96-6.42-5.88-9.67-1.67-2.84-1.75-4.71-1.74-7.96,0,0,.1-13.1-3.53-18.93,0,0-10.55-20.33-19.97-22.82-.62-.16-1.19,.43-.98,1.04,2.11,6.22,8.94,17.38,9.19,24.03Z"/><path class="cls-4" d="M449.63,49.3c.05,1.46,1.55,4,1.93,4.98,1.28,3.35,2.24,6.83,3.82,10.06,3.38,6.9,9.89,12.31,14.32,18.56,2.18,3.08,7.46-6.74,6.99-10.55s-.53-8.32-6.68-9c-2.44-.94-9.39-.68-10.66-3.02-.64-1.18-2.25-12.22-9.64-11.59-.07,.16-.09,.35-.08,.57Z"/></g><path class="cls-4" d="M410.5,149.96c-.29-2.68-4.34-5.68-6-7.56-3.81-4.32-6.5-9.77-7.36-15.48-.09-.62-.03-1.59-.03-2.48,1.19-1.97,2.67-4.62,1.55-3.93-2.31,1.41-5.04-.62-7.07-1.67-2.06-1.07-3.78-2.48-5.45-4.1-.07-.07-.15-.14-.22-.22-3.08-3.06-5.7-6.67-7.45-10.66-.46-1.06-3.76-11.94-3.79-11.93-5.11,.6-7.73,10.85-7.53,15.83,.34,8.11,11.92,24.9,11.92,24.9,1.98,2.95,4.38,5.65,5.83,8.92,1.46,3.3,3.4,7.1,3.78,10.71,.64,6.02,6.04,10.38,12.06,9.74,6.02-.64,10.38-6.04,9.74-12.06Z"/><path class="cls-4" d="M366.76,155.99s6.55,19.58,6.63,26.17c0,0-.01,15.1-1.41,19.26,0,0-.84,4.26-6.93,5.49,0,0-12.58,.93-17.43-.22,0,0-4.85-.39-7.35-3.4l-6.83-7.74s-1.75-1.47-3.48-.99c0,0-8.41,.08-12.69-6.96l-4.02-12.59,14.1-21.28,18.99-7.44,10.09,.1c-.09-1.17,10.35,9.59,10.35,9.59Z"/><path class="cls-7" d="M371.89,160.13c.5-1.52-.16-4.23-.72-5.69-7.28-18.91-28.68-30.84-48.98-27.38-25.78,4.39-40.8,37.12-27.18,59.75,5.14,8.55,24.34,18.6,31.59,7.02-3.53-2.38-7.65-5.56-7.85-10.23-.14-3.19,3.85-6.63,6.76-4.57,1.01,.71,1.84,1.71,2.98,2.19,5.1,2.1,6.13-6.97,6.51-10.01,.93-7.46,2.59-16.55,11.41-17.98,7.78-1.26,15.48,3.75,21.97,7.32,2.13,1.17,3.13,.7,3.5-.42Z"/></g></g></svg>